# xmcd
#
# Track frame offsets:
#	150
#	15693
#	29522
#	40848
#	55165
#	70497
#	78896
#	107652
#	120211
#	131456
#	148017
#	166863
#
# Disc length: 2429 seconds
#
# Revision: 2
# Processed by: cddbd v1.5.2PL0 Copyright (c) Steve Scherf et al.
# Submitted via: dBpowerAMP V4.0
#
DISCID=97097b0c
DTITLE=Various Artist - The Blues - From Memphis to the Mississippi
DYEAR=2003
DGENRE=Blues
TTITLE0=Mississippi Fred McDowell  - Good Morning Little Schoolgirl
TTITLE1=Memphis Slim - Trouble in Mind
TTITLE2=John Lee Hooker - Boom Boom
TTITLE3=Bukka White - Remembrance of Charlie Patton
TTITLE4=BB King - How Blue Can You Get (LIVE)
TTITLE5=Big Joe Williams - Baby Please Don't Go (LIVE)
TTITLE6=Joe Turner - Stormy Monday Blues
TTITLE7=Mississippi Fred McDowell - Got to Move
TTITLE8=John Lee Hooker - Boogie Chillen
TTITLE9=Memphis Slim - Cold Blooded Woman
TTITLE10=Bukka White - Aberdeen Mississippi Blues
TTITLE11=BB King - Caldonia (LIVE)
EXTD=
EXTT0=
EXTT1=
EXTT2=
EXTT3=
EXTT4=
EXTT5=
EXTT6=
EXTT7=
EXTT8=
EXTT9=
EXTT10=
EXTT11=
PLAYORDER=
